<?xml version="1.0" standalone="no"?><!DOCTYPE svg PUBLIC "-//W3C//DTD SVG 1.1//EN" "http://www.w3.org/Graphics/SVG/1.1/DTD/svg11.dtd"><svg t="1616157000866" class="icon" viewBox="0 0 1024 1024" version="1.1" xmlns="http://www.w3.org/2000/svg" p-id="6704" xmlns:xlink="http://www.w3.org/1999/xlink" width="200" height="200"><defs><style type="text/css"></style></defs><path d="M509.76 397.12A109.76 109.76 0 0 0 403.84 512a109.76 109.76 0 0 0 105.92 113.28A109.76 109.76 0 0 0 615.68 512a109.76 109.76 0 0 0-105.92-114.88z" p-id="6705" fill="#d81e06"></path><path d="M960 512c-7.36-12.48-180.48-302.72-448-302.72S71.36 498.24 64 512h2.24H64c7.36 12.48 180.48 302.72 448 302.72S952.64 525.76 960 512h-2.24z m-450.24 192a187.84 187.84 0 0 1-183.04-192 187.84 187.84 0 0 1 183.04-192 187.84 187.84 0 0 1 183.04 192 187.84 187.84 0 0 1-183.04 192z" p-id="6706" fill="#d81e06"></path></svg>