<?xml version="1.0" standalone="no"?><!DOCTYPE svg PUBLIC "-//W3C//DTD SVG 1.1//EN" "http://www.w3.org/Graphics/SVG/1.1/DTD/svg11.dtd"><svg t="1616156829448" class="icon" viewBox="0 0 1024 1024" version="1.1" xmlns="http://www.w3.org/2000/svg" p-id="998" xmlns:xlink="http://www.w3.org/1999/xlink" width="200" height="200"><defs><style type="text/css"></style></defs><path d="M862.72 337.92l-256-202.24c-56.32-43.52-133.12-43.52-189.44 0l-256 202.24C122.88 368.64 102.4 412.16 102.4 458.24V819.2c0 56.32 46.08 102.4 102.4 102.4h151.04c40.96 0 71.68-33.28 71.68-71.68v-186.88c0-5.12 5.12-10.24 10.24-10.24h171.52c5.12 0 10.24 5.12 10.24 10.24v186.88c0 40.96 33.28 71.68 71.68 71.68h128c56.32 0 102.4-46.08 102.4-102.4V458.24c0-46.08-20.48-89.6-58.88-120.32z" p-id="999" fill="#d81e06"></path></svg>