<?xml version="1.0" standalone="no"?><!DOCTYPE svg PUBLIC "-//W3C//DTD SVG 1.1//EN" "http://www.w3.org/Graphics/SVG/1.1/DTD/svg11.dtd"><svg t="1616156980632" class="icon" viewBox="0 0 1024 1024" version="1.1" xmlns="http://www.w3.org/2000/svg" p-id="6521" xmlns:xlink="http://www.w3.org/1999/xlink" width="200" height="200"><defs><style type="text/css"></style></defs><path d="M404.16 284.16m-188.16 0a188.16 188.16 0 1 0 376.32 0 188.16 188.16 0 1 0-376.32 0Z" p-id="6522" fill="#d81e06"></path><path d="M398.08 547.52C73.92 547.52 64 928 64 928h680s-22.08-380.48-345.92-380.48z" p-id="6523" fill="#d81e06"></path><path d="M685.76 538.24A192 192 0 0 0 640 160h-12.48a227.52 227.52 0 0 1-112.32 337.6c-35.2 14.4-26.88 15.68-26.88 15.68s-8.32 0 23.68 16C791.36 578.88 811.84 928 811.84 928h136s-19.84-317.12-262.08-389.76z" p-id="6524" fill="#d81e06"></path></svg>